<svg version="1.1" id="Layer_1" xmlns="http://www.w3.org/2000/svg" xmlns:xlink="http://www.w3.org/1999/xlink" x="0px" y="0px" viewBox="0 0 90.4 79.1" style="enable-background:new 0 0 90.4 79.1;" xml:space="preserve">
 <style type="text/css">
  .st0{fill:#0080C6;}
 </style>
 <g>
  <polyline class="st0" points="0,56.6 21.8,56.6 21.8,63.2 15.5,63.2 15.5,79.1 6.5,79.1 6.5,63.2 0,63.2 	">
  </polyline>
  <polyline class="st0" points="32.8,65.7 28.2,79.1 19.5,79.1 28,56.6 37.5,56.6 46.2,79.1 37.4,79.1 	">
  </polyline>
  <polyline class="st0" points="44.1,56.6 65.9,56.6 65.9,63.2 59.7,63.2 59.7,79.1 50.6,79.1 50.6,63.2 44.1,63.2 	">
  </polyline>
  <polyline class="st0" points="76.9,65.7 72.3,79.1 63.6,79.1 72.2,56.6 81.6,56.6 90.4,79.1 81.6,79.1 	">
  </polyline>
  <path class="st0" d="M77.2,15.2c-0.8-1.6-1.9-3.1-3.2-4.6c-3-3.2-7.2-5.9-12.2-7.8C56.8,1,51,0,45.2,0S33.6,1,28.6,2.9
		c-5,1.9-9.2,4.5-12.2,7.8c-1.3,1.4-2.4,3-3.2,4.6c6.5-1.6,17.6-3.6,27.9-3.9c1,0,1.7,0.3,2.1,0.9c0.6,0.7,0.5,3.2,0.5,4.3
		l-0.3,28.7c0.6,0,1.2,0,1.8,0c0.6,0,1.2,0,1.8,0l-0.3-28.7c0-1.1-0.1-3.6,0.5-4.3c0.5-0.6,1.1-0.9,2.1-0.9
		C59.6,11.5,70.7,13.6,77.2,15.2">
  </path>
  <path class="st0" d="M78.6,18.9c-9.5-2.2-15.9-2.5-22.1-2.9c-5.5-0.3-5.5,1.6-5,5.4c0,0.2,0.1,0.5,0.1,0.8
		c1.8,10.9,4.1,20.2,4.5,21.8c13.3-3,22.9-11.5,22.9-21.4C79.1,21.4,78.9,20.1,78.6,18.9">
  </path>
  <path class="st0" d="M38.9,21.4c0.5-3.7,0.5-5.7-5-5.4c-6.3,0.3-12.6,0.7-22.1,2.9c-0.3,1.2-0.4,2.4-0.4,3.7c0,4.3,1.7,8.4,5,12
		c3,3.2,7.2,5.9,12.2,7.8c1.8,0.7,3.7,1.2,5.7,1.7c0.4-1.5,2.7-11,4.6-22.1C38.9,21.8,38.9,21.6,38.9,21.4">
  </path>
 </g>
</svg>